<?xml version="1.0" encoding="utf-8"?>
<!-- Generator: Adobe Illustrator 24.0.1, SVG Export Plug-In . SVG Version: 6.00 Build 0)  -->
<svg version="1.1" id="Camada_1" xmlns="http://www.w3.org/2000/svg" xmlns:xlink="http://www.w3.org/1999/xlink" x="0px" y="0px"
	 viewBox="0 0 7154.3 2300.3" style="enable-background:new 0 0 7154.3 2300.3;" xml:space="preserve">
<style type="text/css">
	.st0{fill:#FFFFFF;stroke:#000000;stroke-width:1.9035;stroke-miterlimit:3.8533;}
	.st1{fill:#FFFFFF;}
</style>
<path id="path1476_1_" class="st0" d="M0,0.4l0.8,479.9l843.9,1l-0.6,926.9l863.7,5v887.1h438.5l2.4-1367.9h-864.3L1281.6,0L0,0.4z"
	/>
<circle class="st1" cx="1837.6" cy="313" r="313.9"/>
<rect id="ok1_1_" y="800.7" class="st1" width="480.1" height="1497.1"/>
<rect id="ok2_1_" y="1810.5" class="st1" width="1390.8" height="487.3"/>
<path class="st1" d="M2540.9,268.5h269.2v589.6h360.4v208.8H2541L2540.9,268.5L2540.9,268.5z"/>
<path class="st1" d="M3800.1,927.8h-303.4l-53.5,139.1h-273.8l349-798.4H3783l349,798.4h-278.3L3800.1,927.8z M3725.9,733.9
	l-77.5-200.8l-77.5,200.8H3725.9z"/>
<path class="st1" d="M4598.5,777.2v289.7h-269.2V773.8l-301.1-505.3h284l163.1,276l164.2-276h260L4598.5,777.2z"/>
<path class="st1" d="M5021,1062.9c-62.7-14.8-114.3-34.8-154.5-59.9l86.7-196.1c38.1,22.1,80.6,39.8,127.7,53.1
	s92.4,19.9,135.7,19.9c37.3,0,63.9-3.6,79.9-10.8s24-18,24-32.5c0-16.8-10.5-29.3-31.4-37.7s-55.3-17.4-103.2-27.4
	c-61.6-12.9-112.9-26.8-153.9-41.6s-76.8-39.1-107.2-73c-30.4-33.8-45.7-79.7-45.7-137.5c0-50.2,14.1-95.9,42.2-136.9
	s70.1-73.4,126-96.9c55.9-23.6,123.8-35.4,203.5-35.4c54.7,0,108.6,5.9,161.4,17.7c52.9,11.8,99.4,29.1,139.7,51.9l-81,195.1
	c-78.3-39.5-152.5-59.3-222.4-59.3c-69.2,0-103.8,16.8-103.8,50.2c0,16,10.3,27.9,30.8,35.9s54.3,16.6,101.5,25.6
	c60.8,11.4,112.1,24.6,153.9,39.3c41.8,14.8,78.1,39,109,72.4c30.8,33.4,46.2,79.1,46.2,136.9c0,50.2-14.1,95.7-42.2,136.3
	c-28.1,40.7-70.1,73-126,96.9c-55.9,24-123.8,35.9-203.5,35.9C5148.1,1085.2,5083.7,1077.8,5021,1062.9z"/>
<path class="st1" d="M6210,927.8h-303.4l-53.6,139.1h-273.8l349-798.4h264.6l349,798.4h-278.3L6210,927.8z M6135.8,733.9
	l-77.5-200.8l-77.5,200.8H6135.8z"/>
<path class="st1" d="M3253.8,2036.4l-2.3-363.8l-173.4,292h-118.6l-173.4-279.5v351.3h-245.3V1238h221.3l260,425.4l253.2-425.4
	h221.3l2.3,798.4H3253.8z"/>
<path class="st1" d="M3629,1238h269.2v798.4H3629V1238z"/>
<path class="st1" d="M4370.4,1835.6h-73v200.8h-269.2V1238h384.4c73.7,0,138,12.1,192.8,36.5c54.7,24.4,96.9,59.3,126.6,104.9
	c29.7,45.7,44.5,98.8,44.5,159.7c0,57-12.9,106.8-38.8,149.4c-25.8,42.6-63.1,76.4-111.7,101.5l167.6,246.3h-287.5L4370.4,1835.6z
	 M4477.6,1470c-18.2-16.4-45.7-24.6-82.1-24.6h-98.1v187.1h98.1c36.5,0,63.9-8.2,82.1-24.6s27.4-39.3,27.4-69
	C4504.9,1509.4,4495.8,1486.4,4477.6,1470z"/>
<path class="st1" d="M4877.8,1238H5147v798.4h-269.2V1238z"/>
<path class="st1" d="M5821.1,1897.2h-303.4l-53.6,139.1h-273.8l349-798.4h264.6l349,798.4h-278.3L5821.1,1897.2z M5746.9,1703.4
	l-77.5-200.8l-77.5,200.8H5746.9z"/>
<path class="st1" d="M6909.2,2036.4l-2.3-363.8l-173.4,292h-118.6l-173.4-279.5v351.3h-245.3V1238h221.3l260,425.4l253.2-425.4H7152
	l2.3,798.4H6909.2z"/>
</svg>
