<?xml version="1.0" encoding="utf-8"?>
<!-- Generator: Adobe Illustrator 24.0.1, SVG Export Plug-In . SVG Version: 6.00 Build 0)  -->
<svg version="1.1" id="Layer_1" xmlns="http://www.w3.org/2000/svg" xmlns:xlink="http://www.w3.org/1999/xlink" x="0px" y="0px"
	 viewBox="0 0 338 338" style="enable-background:new 0 0 338 338;" xml:space="preserve">
<style type="text/css">
	.st0{fill:none;}
	.st1{enable-background:new    ;}
</style>
<path d="M169,0h-15v0.7C67.8,8.3,0,80.9,0,169s67.8,160.7,154,168.3v0.7h15c93.2,0,169-75.8,169-169S262.2,0,169,0z M30,169
	c-1.3-50.8,30.6-87.2,35.9-93.1c22.3-24.7,53.3-41.3,88.1-45.1c65.1-7,147.5,44.4,153,129.2c5.1,78.7-58.6,147.1-137.1,147.8
	C87.2,308.5,31.7,233.8,30,169z"/>
<rect x="82" y="108" class="st0" width="227" height="230"/>
<g class="st1">
	<path d="M152.7,185h-42.3l-8.1,19.5H80.8l40.6-91h20.8l40.7,91h-22.1L152.7,185z M146.1,169l-14.4-34.8L117.2,169H146.1z"/>
	<path d="M248.5,166.9h-22.6V189h-16.8v-22.1h-22.5V151h22.5v-22.1h16.8V151h22.6V166.9z"/>
</g>
</svg>
