<?xml version="1.0"?>
<svg xmlns="http://www.w3.org/2000/svg" xmlns:xlink="http://www.w3.org/1999/xlink" xmlns:svgjs="http://svgjs.com/svgjs" version="1.1" width="512" height="512" x="0" y="0" viewBox="0 0 64 64" style="enable-background:new 0 0 512 512" xml:space="preserve"><g><g xmlns="http://www.w3.org/2000/svg"><path d="m25 53h-6c-1.103 0-2 .897-2 2v2c0 1.103.897 2 2 2h6c1.103 0 2-.897 2-2v-2c0-1.103-.897-2-2-2zm-6 4v-2h6l.001 2z" fill="#ffffff" data-original="#000000" style=""/><path d="m11 53h-2c-1.103 0-2 .897-2 2v2c0 1.103.897 2 2 2h2c1.103 0 2-.897 2-2v-2c0-1.103-.897-2-2-2zm-2 4v-2h2l.001 2z" fill="#ffffff" data-original="#000000" style=""/><path d="m35 53h-2c-1.103 0-2 .897-2 2v2c0 1.103.897 2 2 2h2c1.103 0 2-.897 2-2v-2c0-1.103-.897-2-2-2zm-2 4v-2h2l.001 2z" fill="#ffffff" data-original="#000000" style=""/><circle cx="22" cy="6" r="1" fill="#ffffff" data-original="#000000" style=""/><path d="m5 21h12v-8h-12zm2-6h8v4h-8z" fill="#ffffff" data-original="#000000" style=""/><path d="m19 13h20v2h-20z" fill="#ffffff" data-original="#000000" style=""/><path d="m47.586 20h-.172c-.871 0-1.703.25-2.414.717-.711-.467-1.543-.717-2.414-.717h-.172c-1.179 0-2.288.459-3.125 1.297-.831.831-1.289 1.936-1.289 3.111 0 1.31.577 2.542 1.583 3.379l5.417 4.515 5.417-4.514c1.006-.838 1.583-2.07 1.583-3.38 0-1.175-.458-2.279-1.293-3.115-.833-.834-1.942-1.293-3.121-1.293zm1.551 6.251-4.137 3.447-4.137-3.448c-.549-.456-.863-1.128-.863-1.842 0-.641.25-1.243.707-1.701.449-.449 1.072-.707 1.707-.707h.172c.635 0 1.258.258 1.707.707l.707.707.707-.707c.449-.449 1.072-.707 1.707-.707h.172c.635 0 1.258.258 1.711.711.453.454.703 1.056.703 1.697 0 .714-.314 1.386-.863 1.843z" fill="#ffffff" data-original="#000000" style=""/><path d="m60 17h-17v-11c0-2.757-2.243-5-5-5h-32c-2.757 0-5 2.243-5 5v52c0 2.757 2.243 5 5 5h32c2.757 0 5-2.243 5-5v-23h2v1.52c0 1.368 1.113 2.48 2.48 2.48.561 0 1.111-.193 1.55-.543l4.321-3.457h6.649c1.654 0 3-1.346 3-3v-12c0-1.654-1.346-3-3-3zm-19-11v3h-15.026c.635-.838 1.026-1.87 1.026-3v-3h11c1.654 0 3 1.346 3 3zm-22 0v-3h6v3c0 1.654-1.346 3-3 3s-3-1.346-3-3zm-13-3h11v3c0 1.13.391 2.162 1.026 3h-15.026v-3c0-1.654 1.346-3 3-3zm32 58h-32c-1.654 0-3-1.346-3-3v-7h38v7c0 1.654-1.346 3-3 3zm-16-31.637c1.178 1.013 2.541 1.815 4 2.352v2.285c0 2.206-1.794 4-4 4s-4-1.794-4-4v-2.286c1.458-.535 2.821-1.338 4-2.351zm-1.659 10.398c.527.153 1.083.239 1.659.239s1.132-.086 1.659-.239l.3 1.199-.276.827c-.241.725-.918 1.213-1.683 1.213s-1.442-.488-1.684-1.214l-.276-.826zm5.484.414-.328-1.31c1.513-1.09 2.503-2.862 2.503-4.865v-3.721l-1-.333c-1.485-.495-2.853-1.326-4-2.392v-2.554h-2v2.553c-1.147 1.066-2.514 1.897-4 2.392l-1 .334v3.721c0 2.003.99 3.775 2.503 4.866l-.328 1.31-1.768.442c-.87.217-1.682.606-2.407 1.122v-10.74c0-4.411 3.589-8 8-8s8 3.589 8 8.001l.012 10.747c-.728-.521-1.544-.912-2.418-1.13zm-12.825 7.367c0-1.373.535-2.663 1.505-3.633.659-.658 1.484-1.125 2.387-1.351l1.452-.363.075.224c.514 1.543 1.953 2.581 3.581 2.581s3.067-1.038 3.581-2.581l.075-.224 1.453.363c.903.226 1.728.693 2.387 1.351.969.971 1.504 2.261 1.504 3.633v1.458h-18zm28 1.458h-8v-1.458c0-1.291-.348-2.526-.986-3.609l-.014-12.933c0-5.514-4.486-10-10-10s-10 4.486-10 10v12.91c-.647 1.089-1 2.332-1 3.633v1.457h-8v-38h38v6h-2-2-18v2h15.184c-.112.314-.184.648-.184 1v12c0 1.654 1.346 3 3 3h4zm20-17c0 .551-.449 1-1 1h-7.351l-4.868 3.895c-.293.232-.781-.002-.781-.375v-3.52h-10c-.551 0-1-.449-1-1v-12c0-.551.449-1 1-1h2 21c.551 0 1 .449 1 1z" fill="#ffffff" data-original="#000000" style=""/><path d="m53.293 24.293 1.414 1.414 2.293-2.293v7.586h2v-10h-2.414z" fill="#ffffff" data-original="#000000" style=""/><path d="m49 45h2v2h-2z" fill="#ffffff" data-original="#000000" style=""/><path d="m53 45h2v2h-2z" fill="#ffffff" data-original="#000000" style=""/><path d="m57 45h2v2h-2z" fill="#ffffff" data-original="#000000" style=""/><path d="m60 41h-12c-1.654 0-3 1.346-3 3v4c0 1.654 1.346 3 3 3v1.586c0 1.331 1.083 2.414 2.414 2.414.645 0 1.251-.251 1.707-.707l3.293-3.293h4.586c1.654 0 3-1.346 3-3v-4c0-1.654-1.346-3-3-3zm1 7c0 .551-.449 1-1 1h-5.414l-3.879 3.879c-.238.239-.707.044-.707-.293v-3.586h-2c-.551 0-1-.449-1-1v-4c0-.551.449-1 1-1h12c.551 0 1 .449 1 1z" fill="#ffffff" data-original="#000000" style=""/></g></g></svg>
