<?xml version="1.0"?>
<svg xmlns="http://www.w3.org/2000/svg" xmlns:xlink="http://www.w3.org/1999/xlink" xmlns:svgjs="http://svgjs.com/svgjs" version="1.1" width="512" height="512" x="0" y="0" viewBox="0 0 511.996 511.996" style="enable-background:new 0 0 512 512" xml:space="preserve" class=""><g><g xmlns="http://www.w3.org/2000/svg"><path d="m49.066 69.622c12.718 0 23.064-10.347 23.064-23.065s-10.346-23.065-23.064-23.065c-12.719 0-23.065 10.347-23.065 23.065s10.347 23.065 23.065 23.065zm0-31.13c4.446 0 8.064 3.618 8.064 8.065s-3.618 8.065-8.064 8.065c-4.447 0-8.065-3.618-8.065-8.065s3.618-8.065 8.065-8.065z" fill="#ffffff" data-original="#000000" style="" class=""/><path d="m98.551 69.622c12.719 0 23.065-10.347 23.065-23.065s-10.346-23.065-23.065-23.065-23.066 10.347-23.066 23.065 10.347 23.065 23.066 23.065zm0-31.13c4.447 0 8.065 3.618 8.065 8.065s-3.618 8.065-8.065 8.065-8.065-3.618-8.065-8.065 3.618-8.065 8.065-8.065z" fill="#ffffff" data-original="#000000" style="" class=""/><path d="m148.036 69.622c12.718 0 23.064-10.347 23.064-23.065s-10.347-23.065-23.064-23.065c-12.719 0-23.065 10.347-23.065 23.065s10.346 23.065 23.065 23.065zm0-31.13c4.446 0 8.064 3.618 8.064 8.065s-3.618 8.065-8.064 8.065c-4.447 0-8.065-3.618-8.065-8.065s3.618-8.065 8.065-8.065z" fill="#ffffff" data-original="#000000" style="" class=""/><path d="m329.762 158.772h61.687c4.143 0 7.5-3.358 7.5-7.5s-3.357-7.5-7.5-7.5h-61.687c-4.143 0-7.5 3.358-7.5 7.5s3.357 7.5 7.5 7.5z" fill="#ffffff" data-original="#000000" style="" class=""/><path d="m456.893 112.855h-18.465v-57.825c0-30.344-24.682-55.03-55.02-55.03h-327.918c-30.339 0-55.02 24.686-55.02 55.03v300.218c0 30.344 24.682 55.03 55.021 55.03h154.193v47.085c0 30.125 24.508 54.633 54.633 54.633h192.576c30.125 0 54.634-24.508 54.634-54.633v-289.875c-.001-30.125-24.509-54.633-54.634-54.633zm-401.403 282.423c-22.067 0-40.021-17.958-40.021-40.03v-300.218c.001-22.072 17.954-40.03 40.021-40.03h327.918c22.066 0 40.02 17.958 40.02 40.03v57.825h-10.529v-2.018c0-18.984-15.445-34.43-34.431-34.43h-261.489c-4.143 0-7.5 3.358-7.5 7.5s3.357 7.5 7.5 7.5h261.489c10.714 0 19.431 8.716 19.431 19.43v2.018h-133.583c-30.125 0-54.633 24.508-54.633 54.633v202.249h-154.195c-7.99 0-14.49-6.5-14.49-14.49v-244.41c0-10.713 8.716-19.43 19.43-19.43h26.551c4.143 0 7.5-3.358 7.5-7.5s-3.357-7.5-7.5-7.5h-26.551c-18.984 0-34.43 15.445-34.43 34.43v244.41c0 16.261 13.229 29.49 29.49 29.49h154.195v10.541zm441.036 62.085c0 21.854-17.779 39.633-39.634 39.633h-192.576c-21.854 0-39.633-17.779-39.633-39.633v-289.875c0-21.854 17.779-39.633 39.633-39.633h192.576c21.854 0 39.634 17.779 39.634 39.633z" fill="#ffffff" data-original="#000000" style="" class=""/><path d="m446.229 143.767h-26.25c-4.143 0-7.5 3.358-7.5 7.5v1.27c0 11.193-9.103 20.3-20.29 20.3h-63.16c-11.188 0-20.29-9.106-20.29-20.3v-1.27c0-4.142-3.357-7.5-7.5-7.5h-26.26c-18.958 0-34.381 15.427-34.381 34.39v268.54c0 18.957 15.423 34.38 34.381 34.38h171.25c18.957 0 34.38-15.423 34.38-34.38v-194.56c0-4.142-3.357-7.5-7.5-7.5s-7.5 3.358-7.5 7.5v194.56c0 10.686-8.693 19.38-19.38 19.38h-171.25c-10.687 0-19.381-8.694-19.381-19.38v-268.54c0-10.692 8.694-19.39 19.381-19.39h19.311c2.949 16.503 17.405 29.07 34.739 29.07h63.16c17.334 0 31.79-12.566 34.739-29.07h19.301c10.687 0 19.38 8.698 19.38 19.39v43.98c0 4.142 3.357 7.5 7.5 7.5s7.5-3.358 7.5-7.5v-43.98c-.001-18.963-15.423-34.39-34.38-34.39z" fill="#ffffff" data-original="#000000" style="" class=""/><path d="m294.879 378.954c0 4.142 3.357 7.5 7.5 7.5h116.452c4.143 0 7.5-3.358 7.5-7.5 0-22.785-11.659-43.424-30.178-55.302 18.136-11.712 30.177-32.088 30.177-55.237 0-36.24-29.483-65.724-65.723-65.724s-65.724 29.483-65.724 65.724c0 23.149 12.042 43.527 30.179 55.238-18.522 11.879-30.183 32.517-30.183 55.301zm15.004-110.539c0-27.969 22.755-50.724 50.724-50.724s50.723 22.754 50.723 50.724c0 27.969-22.754 50.723-50.723 50.723s-50.724-22.754-50.724-50.723zm50.723 65.723c6.289 0 12.367-.906 18.13-2.563 17.234 6.575 29.377 21.886 32.043 39.879h-100.348c2.667-17.991 14.81-33.302 32.048-39.879 5.762 1.657 11.839 2.563 18.127 2.563z" fill="#ffffff" data-original="#000000" style="" class=""/><path d="m430.549 404.332h-139.889c-4.143 0-7.5 3.358-7.5 7.5s3.357 7.5 7.5 7.5h139.889c4.143 0 7.5-3.358 7.5-7.5s-3.358-7.5-7.5-7.5z" fill="#ffffff" data-original="#000000" style="" class=""/><path d="m430.549 430.023h-139.889c-4.143 0-7.5 3.358-7.5 7.5s3.357 7.5 7.5 7.5h139.889c4.143 0 7.5-3.358 7.5-7.5s-3.358-7.5-7.5-7.5z" fill="#ffffff" data-original="#000000" style="" class=""/><path d="m184.87 285.474h-118.431c-4.143 0-7.5 3.358-7.5 7.5s3.357 7.5 7.5 7.5h118.431c4.143 0 7.5-3.358 7.5-7.5s-3.357-7.5-7.5-7.5z" fill="#ffffff" data-original="#000000" style="" class=""/><path d="m184.87 311.166h-118.431c-4.143 0-7.5 3.358-7.5 7.5s3.357 7.5 7.5 7.5h118.431c4.143 0 7.5-3.358 7.5-7.5s-3.357-7.5-7.5-7.5z" fill="#ffffff" data-original="#000000" style="" class=""/><path d="m67.574 262.094c1.255.807 2.659 1.192 4.049 1.192 2.467 0 4.882-1.216 6.315-3.445 2.24-3.484 1.231-8.125-2.253-10.365-3.496-2.248-5.584-6.067-5.584-10.214v-.367c0-4.142-3.357-7.5-7.5-7.5s-7.5 3.358-7.5 7.5v.367c.001 9.276 4.663 17.811 12.473 22.832z" fill="#ffffff" data-original="#000000" style="" class=""/><path d="m62.602 217.381c4.143 0 7.5-3.358 7.5-7.5v-20.01c0-4.142-3.357-7.5-7.5-7.5s-7.5 3.358-7.5 7.5v20.01c0 4.142 3.357 7.5 7.5 7.5z" fill="#ffffff" data-original="#000000" style="" class=""/><path d="m188.707 213.506c-4.143 0-7.5 3.358-7.5 7.5v18.256c0 .361-.017.729-.048 1.094-.363 4.126 2.688 7.765 6.813 8.128.224.02.445.029.666.029 3.845 0 7.119-2.94 7.462-6.843.07-.799.106-1.61.106-2.408v-18.256c.001-4.142-3.356-7.5-7.499-7.5z" fill="#ffffff" data-original="#000000" style="" class=""/><path d="m62.602 168.356c4.143 0 7.5-3.358 7.5-7.5v-18.216c0-.371.017-.745.05-1.109.376-4.125-2.663-7.774-6.788-8.15-4.121-.379-7.774 2.663-8.149 6.789-.074.815-.112 1.647-.112 2.471v18.217c-.001 4.141 3.356 7.498 7.499 7.498z" fill="#ffffff" data-original="#000000" style="" class=""/><path d="m141.567 258.893c0 4.142 3.357 7.5 7.5 7.5h20.077.012c4.143 0 7.5-3.358 7.5-7.5s-3.357-7.5-7.5-7.5c-.021 0-.059 0-.098 0h-19.991c-4.142 0-7.5 3.357-7.5 7.5z" fill="#ffffff" data-original="#000000" style="" class=""/><path d="m92.543 258.893c0 4.142 3.357 7.5 7.5 7.5h20.01c4.143 0 7.5-3.358 7.5-7.5s-3.357-7.5-7.5-7.5h-20.01c-4.143 0-7.5 3.357-7.5 7.5z" fill="#ffffff" data-original="#000000" style="" class=""/><path d="m188.707 164.482c-4.143 0-7.5 3.358-7.5 7.5v20.01c0 4.142 3.357 7.5 7.5 7.5s7.5-3.358 7.5-7.5v-20.01c0-4.142-3.357-7.5-7.5-7.5z" fill="#ffffff" data-original="#000000" style="" class=""/><path d="m131.217 130.51h20.01c4.143 0 7.5-3.358 7.5-7.5s-3.357-7.5-7.5-7.5h-20.01c-4.143 0-7.5 3.358-7.5 7.5s3.357 7.5 7.5 7.5z" fill="#ffffff" data-original="#000000" style="" class=""/><path d="m175.603 132.412c3.51 2.247 5.604 6.07 5.604 10.228v.328c0 4.142 3.357 7.5 7.5 7.5s7.5-3.358 7.5-7.5v-.328c0-9.297-4.68-17.844-12.517-22.861-3.49-2.233-8.128-1.217-10.36 2.273-2.233 3.488-1.216 8.127 2.273 10.36z" fill="#ffffff" data-original="#000000" style="" class=""/><path d="m102.202 115.51h-20.01c-4.143 0-7.48 3.358-7.48 7.5s3.378 7.5 7.521 7.5h19.97c4.143 0 7.5-3.358 7.5-7.5s-3.358-7.5-7.501-7.5z" fill="#ffffff" data-original="#000000" style="" class=""/></g></g></svg>
